<svg width="90" height="69" viewBox="0 0 90 69" fill="none" xmlns="http://www.w3.org/2000/svg">
<path d="M6.37487 68.3041C5.17483 68.3041 4.06774 68.0844 3.05361 67.6449C2.05639 67.1886 1.23664 66.5463 0.59436 65.7181L2.87614 62.98C3.83956 64.2814 4.9382 64.9321 6.17205 64.9321C7.84535 64.9321 8.68201 63.9518 8.68201 61.9912V53.5486H2.44514V50.2527H12.7639V61.763C12.7639 63.9434 12.223 65.5829 11.1413 66.6815C10.0595 67.7632 8.47073 68.3041 6.37487 68.3041Z" fill="#FFBD63"/>
<path d="M28.771 64.1969H20.5312L18.9593 67.9999H14.7507L22.6609 50.2527H26.7174L34.6529 67.9999H30.3429L28.771 64.1969ZM27.478 61.0785L24.6638 54.2838L21.8496 61.0785H27.478Z" fill="#FFBD63"/>
<path d="M53.4047 50.2527V67.9999H50.0328L41.1845 57.2248V67.9999H37.128V50.2527H40.5253L49.3482 61.0278V50.2527H53.4047Z" fill="#FFBD63"/>
<path d="M25.597 26.2227V32H2.4443V27.4044L14.2614 16.2439C15.516 15.0476 16.3622 14.0263 16.7999 13.1802C17.2375 12.3048 17.4564 11.4441 17.4564 10.5979C17.4564 9.37245 17.0333 8.43875 16.1871 7.79683C15.3701 7.12574 14.1593 6.79019 12.5545 6.79019C11.2123 6.79019 10.0014 7.0528 8.92181 7.578C7.84223 8.07403 6.93771 8.83265 6.20826 9.85388L1.04376 6.52759C2.24006 4.74774 3.88861 3.36178 5.98943 2.36973C8.09024 1.34851 10.4974 0.837891 13.211 0.837891C15.4869 0.837891 17.471 1.2172 19.1633 1.97583C20.8848 2.70528 22.2124 3.75569 23.1461 5.12705C24.1089 6.46924 24.5904 8.05944 24.5904 9.89765C24.5904 11.5608 24.2402 13.1218 23.54 14.5807C22.8397 16.0396 21.4829 17.7028 19.4696 19.5701L12.4232 26.2227H25.597Z" fill="#FFBD63"/>
<path d="M53.5155 1.36309V5.95862L42.1361 32H34.4332L45.4187 7.14033H35.2647V12.1298H28.9623V1.36309H53.5155Z" fill="#FFBD63"/>
<path d="M71.9486 17.8228L68 17.8228L68 1.99849L71.1409 1.99849L78.7689 10.0751C79.5865 10.9327 80.2845 11.511 80.8628 11.8101C81.4611 12.1093 82.0494 12.2588 82.6277 12.2588C83.4653 12.2588 84.1035 11.9697 84.5422 11.3913C85.0009 10.833 85.2302 10.0054 85.2302 8.90852C85.2302 7.99117 85.0507 7.16356 84.6918 6.4257C84.3528 5.68783 83.8343 5.06962 83.1363 4.57106L85.4097 1.04126C86.6262 1.8589 87.5734 2.98564 88.2515 4.42149C88.9495 5.85734 89.2985 7.50258 89.2985 9.35722C89.2985 10.9127 89.0392 12.2688 88.5207 13.4255C88.0222 14.6021 87.3042 15.5094 86.3669 16.1476C85.4496 16.8057 84.3627 17.1347 83.1064 17.1347C81.9696 17.1347 80.9027 16.8954 79.9056 16.4168C78.9085 15.9382 77.7718 15.0109 76.4955 13.6349L71.9486 8.81878L71.9486 17.8228Z" fill="white"/>
<path d="M67.6411 29.4858C67.6411 27.7508 68.0698 26.2052 68.9273 24.8492C69.7849 23.4931 71.0213 22.4262 72.6366 21.6484C74.2719 20.8906 76.2163 20.5117 78.4698 20.5117C80.7232 20.5117 82.6577 20.8906 84.273 21.6484C85.9083 22.4262 87.1547 23.4931 88.0122 24.8492C88.8697 26.2052 89.2985 27.7508 89.2985 29.4858C89.2985 31.2208 88.8697 32.7663 88.0122 34.1224C87.1547 35.4784 85.9083 36.5354 84.273 37.2932C82.6577 38.071 80.7232 38.4598 78.4698 38.4598C76.2163 38.4598 74.2719 38.071 72.6366 37.2932C71.0213 36.5354 69.7849 35.4784 68.9273 34.1224C68.0698 32.7663 67.6411 31.2208 67.6411 29.4858ZM71.7392 29.4858C71.7392 30.7621 72.2876 31.7592 73.3845 32.4771C74.4813 33.215 76.1764 33.5839 78.4698 33.5839C80.7631 33.5839 82.4582 33.215 83.5551 32.4771C84.6519 31.7592 85.2003 30.7621 85.2003 29.4858C85.2003 28.2294 84.6519 27.2323 83.5551 26.4944C82.4582 25.7765 80.7631 25.4175 78.4698 25.4175C76.1764 25.4175 74.4813 25.7765 73.3845 26.4944C72.2876 27.2323 71.7392 28.2294 71.7392 29.4858Z" fill="white"/>
<path d="M71.9486 57.0317L68 57.0317L68 41.2074L71.1409 41.2074L78.7689 49.2841C79.5865 50.1416 80.2845 50.7199 80.8628 51.0191C81.4611 51.3182 82.0494 51.4678 82.6277 51.4678C83.4653 51.4678 84.1035 51.1786 84.5422 50.6003C85.0009 50.0419 85.2302 49.2143 85.2302 48.1175C85.2302 47.2001 85.0507 46.3725 84.6918 45.6346C84.3528 44.8968 83.8343 44.2786 83.1363 43.78L85.4097 40.2502C86.6262 41.0678 87.5734 42.1946 88.2515 43.6304C88.9495 45.0663 89.2985 46.7115 89.2985 48.5662C89.2985 50.1217 89.0392 51.4778 88.5207 52.6344C88.0221 53.811 87.3042 54.7184 86.3669 55.3565C85.4496 56.0146 84.3627 56.3437 83.1064 56.3437C81.9696 56.3437 80.9027 56.1044 79.9056 55.6258C78.9085 55.1471 77.7718 54.2198 76.4955 52.8438L71.9486 48.0277L71.9486 57.0317Z" fill="white"/>
<path d="M88.9395 67.8557L68 67.8557L68 63.0097L85.0507 63.0097L85.0507 58.8218L88.9395 58.8218L88.9395 67.8557Z" fill="white"/>
</svg>
