<svg width="40" height="41" viewBox="0 0 40 41" fill="none" xmlns="http://www.w3.org/2000/svg">
<path d="M37.8571 9.28571H28.5714C27.7009 9.28571 26.5848 9.66518 25.7143 10.1786V2.85714C25.7143 1.67411 24.7545 0.714283 23.5714 0.714283H14.2857C13.1027 0.714283 11.4509 1.40625 10.625 2.23214L1.51786 11.3393C0.691964 12.1652 0 13.817 0 15V30C0 31.183 0.959821 32.1429 2.14286 32.1429H14.2857V38.5714C14.2857 39.7545 15.2455 40.7143 16.4286 40.7143H37.8571C39.0402 40.7143 40 39.7545 40 38.5714V11.4286C40 10.2455 39.0402 9.28571 37.8571 9.28571ZM25.7143 14.0402V20.7143H19.0402L25.7143 14.0402ZM11.4286 5.46875V12.1429H4.75446L11.4286 5.46875ZM15.8036 19.9107C14.9777 20.7366 14.2857 22.3884 14.2857 23.5714V29.2857H2.85714V15H12.1429C13.3259 15 14.2857 14.0402 14.2857 12.8571V3.57143H22.8571V12.8571L15.8036 19.9107ZM37.1429 37.8571H17.1429V23.5714H26.4286C27.6116 23.5714 28.5714 22.6116 28.5714 21.4286V12.1429H37.1429V37.8571Z" fill="#61BBD1"/>
</svg>
