<svg width="89" height="68" viewBox="0 0 89 68" fill="none" xmlns="http://www.w3.org/2000/svg">
<path d="M6.21158 53.5486V58.2389H14.426V61.5348H6.21158V67.9999H2.10437V50.2527H15.5162V53.5486H6.21158Z" fill="#FFBD63"/>
<path d="M32.6719 64.704V67.9999H18.9305V50.2527H32.3423V53.5486H23.0124V57.4023H31.2521V60.5968H23.0124V64.704H32.6719Z" fill="#FFBD63"/>
<path d="M53.3888 50.2527L45.7068 67.9999H41.6503L33.9936 50.2527H38.4304L43.8307 62.9292L49.3069 50.2527H53.3888Z" fill="#FFBD63"/>
<path d="M24.5971 26.2227V32H1.44437V27.4044L13.2614 16.2439C14.5161 15.0476 15.3623 14.0263 15.7999 13.1802C16.2376 12.3048 16.4564 11.4441 16.4564 10.5979C16.4564 9.37245 16.0333 8.43875 15.1872 7.79683C14.3702 7.12574 13.1593 6.79019 11.5545 6.79019C10.2123 6.79019 9.00146 7.0528 7.92187 7.578C6.84229 8.07403 5.93777 8.83265 5.20832 9.85388L0.0438232 6.52759C1.24012 4.74774 2.88867 3.36178 4.98949 2.36973C7.0903 1.34851 9.49748 0.837891 12.211 0.837891C14.4869 0.837891 16.471 1.2172 18.1633 1.97583C19.8848 2.70528 21.2124 3.75569 22.1461 5.12705C23.109 6.46924 23.5904 8.05944 23.5904 9.89765C23.5904 11.5608 23.2403 13.1218 22.54 14.5807C21.8398 16.0396 20.483 17.7028 18.4697 19.5701L11.4232 26.2227H24.5971Z" fill="#FFBD63"/>
<path d="M41.6614 32.5252C39.1229 32.5252 36.8616 31.8978 34.8775 30.6432C32.8934 29.3885 31.3324 27.5795 30.1945 25.2161C29.0857 22.8235 28.5313 19.9786 28.5313 16.6815C28.5313 13.3844 29.0857 10.5542 30.1945 8.19074C31.3324 5.79814 32.8934 3.97452 34.8775 2.71987C36.8616 1.46522 39.1229 0.837891 41.6614 0.837891C44.1999 0.837891 46.4612 1.46522 48.4453 2.71987C50.4294 3.97452 51.9758 5.79814 53.0846 8.19074C54.2225 10.5542 54.7915 13.3844 54.7915 16.6815C54.7915 19.9786 54.2225 22.8235 53.0846 25.2161C51.9758 27.5795 50.4294 29.3885 48.4453 30.6432C46.4612 31.8978 44.1999 32.5252 41.6614 32.5252ZM41.6614 26.5291C43.5288 26.5291 44.9877 25.7267 46.0381 24.1219C47.1177 22.5171 47.6575 20.037 47.6575 16.6815C47.6575 13.3261 47.1177 10.8459 46.0381 9.24114C44.9877 7.63635 43.5288 6.83396 41.6614 6.83396C39.8232 6.83396 38.3643 7.63635 37.2847 9.24114C36.2343 10.8459 35.7091 13.3261 35.7091 16.6815C35.7091 20.037 36.2343 22.5171 37.2847 24.1219C38.3643 25.7267 39.8232 26.5291 41.6614 26.5291Z" fill="#FFBD63"/>
<path d="M70.9486 17.8228L67 17.8228L67 1.99849L70.1409 1.99849L77.7689 10.0751C78.5865 10.9327 79.2845 11.511 79.8628 11.8101C80.4611 12.1093 81.0494 12.2588 81.6277 12.2588C82.4653 12.2588 83.1035 11.9697 83.5422 11.3913C84.0009 10.833 84.2302 10.0054 84.2302 8.90852C84.2302 7.99117 84.0507 7.16356 83.6918 6.4257C83.3528 5.68783 82.8343 5.06962 82.1363 4.57106L84.4097 1.04126C85.6262 1.8589 86.5734 2.98564 87.2515 4.42149C87.9495 5.85734 88.2985 7.50258 88.2985 9.35722C88.2985 10.9127 88.0392 12.2688 87.5207 13.4255C87.0222 14.6021 86.3042 15.5094 85.3669 16.1476C84.4496 16.8057 83.3627 17.1347 82.1064 17.1347C80.9696 17.1347 79.9027 16.8954 78.9056 16.4168C77.9085 15.9382 76.7718 15.0109 75.4955 13.6349L70.9486 8.81878L70.9486 17.8228Z" fill="white"/>
<path d="M66.6411 29.4858C66.6411 27.7508 67.0698 26.2052 67.9273 24.8492C68.7849 23.4931 70.0213 22.4262 71.6366 21.6484C73.2719 20.8906 75.2163 20.5117 77.4698 20.5117C79.7232 20.5117 81.6577 20.8906 83.273 21.6484C84.9083 22.4262 86.1547 23.4931 87.0122 24.8492C87.8697 26.2052 88.2985 27.7508 88.2985 29.4858C88.2985 31.2208 87.8697 32.7663 87.0122 34.1224C86.1547 35.4784 84.9083 36.5354 83.273 37.2932C81.6577 38.071 79.7232 38.4598 77.4698 38.4598C75.2163 38.4598 73.2719 38.071 71.6366 37.2932C70.0213 36.5354 68.7849 35.4784 67.9273 34.1224C67.0698 32.7663 66.6411 31.2208 66.6411 29.4858ZM70.7392 29.4858C70.7392 30.7621 71.2876 31.7592 72.3845 32.4771C73.4813 33.215 75.1764 33.5839 77.4698 33.5839C79.7631 33.5839 81.4582 33.215 82.5551 32.4771C83.6519 31.7592 84.2003 30.7621 84.2003 29.4858C84.2003 28.2294 83.6519 27.2323 82.5551 26.4944C81.4582 25.7765 79.7631 25.4175 77.4698 25.4175C75.1764 25.4175 73.4813 25.7765 72.3845 26.4944C71.2876 27.2323 70.7392 28.2294 70.7392 29.4858Z" fill="white"/>
<path d="M70.9486 57.0317L67 57.0317L67 41.2074L70.1409 41.2074L77.7689 49.2841C78.5865 50.1416 79.2845 50.7199 79.8628 51.0191C80.4611 51.3182 81.0494 51.4678 81.6277 51.4678C82.4653 51.4678 83.1035 51.1786 83.5422 50.6003C84.0009 50.0419 84.2302 49.2143 84.2302 48.1175C84.2302 47.2001 84.0507 46.3725 83.6918 45.6346C83.3528 44.8968 82.8343 44.2786 82.1363 43.78L84.4097 40.2502C85.6262 41.0678 86.5734 42.1946 87.2515 43.6304C87.9495 45.0663 88.2985 46.7115 88.2985 48.5662C88.2985 50.1217 88.0392 51.4778 87.5207 52.6344C87.0221 53.811 86.3042 54.7184 85.3669 55.3565C84.4496 56.0146 83.3627 56.3437 82.1064 56.3437C80.9696 56.3437 79.9027 56.1044 78.9056 55.6258C77.9085 55.1471 76.7718 54.2198 75.4955 52.8438L70.9486 48.0277L70.9486 57.0317Z" fill="white"/>
<path d="M87.9395 67.8557L67 67.8557L67 63.0097L84.0507 63.0097L84.0507 58.8218L87.9395 58.8218L87.9395 67.8557Z" fill="white"/>
</svg>
