<svg width="60" height="35" viewBox="0 0 60 35" fill="none" xmlns="http://www.w3.org/2000/svg">
<path d="M30.6248 19.7969C30.5811 19.775 30.5264 19.7531 30.4717 19.7313C29.5639 19.3813 28.8857 19.075 28.4373 18.7141C27.9451 18.3313 27.7154 17.8938 27.7154 17.2703C27.7154 16.7016 27.967 16.1766 28.4373 15.8156C28.842 15.4984 29.4217 15.3016 30.1436 15.3016C30.3076 15.3016 30.4717 15.3125 30.6248 15.3234C31.7404 15.4219 32.6045 15.8266 33.1076 16.1328L33.7639 14.2188C33.0311 13.7922 31.9154 13.4094 30.6248 13.3438V10.9375H28.4373V13.5625C26.392 14.1312 25.2107 15.7172 25.2107 17.5766C25.2107 19.1625 26.2498 20.5188 28.4373 21.4484C28.6342 21.525 28.8311 21.6016 29.0389 21.6781C29.6951 21.9187 30.2201 22.1484 30.6248 22.4219C31.4014 22.925 31.7295 23.5047 31.7295 24.3359C31.7295 25.0906 31.3686 25.7578 30.6248 26.1406C30.1982 26.3594 29.6295 26.4906 28.9186 26.4906C28.7545 26.4906 28.6014 26.4797 28.4373 26.4688C27.2779 26.3594 26.1295 25.8891 25.4514 25.4406L24.7842 27.4531C25.7139 27.9891 27.0154 28.3719 28.4373 28.4266V30.625H30.6248V28.2516C32.9654 27.7484 34.2779 26.1734 34.2779 24.0953C34.2779 21.9844 33.042 20.7375 30.6248 19.7969Z" fill="#61BBD1"/>
<path d="M0 35H8.3125H14.875H21.6453H37.4172H37.625H44.1875H52.5V32.8125H46.4439C48.9442 29.307 50.3125 25.118 50.3125 20.7812C50.3125 9.32203 40.9905 0 29.5312 0C28.4233 0 27.3438 0.112657 26.2817 0.280001C25.1825 0.0984381 24.0691 0 22.9688 0C11.5095 0 2.1875 9.32203 2.1875 20.7812C2.1875 25.118 3.55578 29.307 6.05609 32.8125H0V35ZM21.9548 32.8125C17.7898 30.1897 15.3125 25.7141 15.3125 20.7812C15.3125 12.9412 21.6912 6.5625 29.5312 6.5625C37.3713 6.5625 43.75 12.9412 43.75 20.7812C43.75 25.7141 41.2727 30.1897 37.1077 32.8125H21.9548ZM48.125 20.7812C48.125 25.1956 46.5533 29.4481 43.6909 32.8125H40.6678C43.9742 29.7369 45.9375 25.3673 45.9375 20.7812C45.9375 11.7348 38.5777 4.375 29.5312 4.375C20.4848 4.375 13.125 11.7348 13.125 20.7812C13.125 25.3673 15.0883 29.7369 18.3947 32.8125H15.3716C12.5092 29.4481 10.9375 25.1956 10.9375 20.7812C10.9375 10.5284 19.2784 2.1875 29.5312 2.1875C39.7841 2.1875 48.125 10.5284 48.125 20.7812ZM4.375 20.7812C4.375 11.6594 10.9823 4.06766 19.6591 2.49922C13.1677 6.01891 8.75 12.8931 8.75 20.7812C8.75 25.118 10.1183 29.307 12.6186 32.8125H8.80906C5.94672 29.4481 4.375 25.1956 4.375 20.7812Z" fill="#61BBD1"/>
<path d="M59.0625 32.8125H54.6875V35H59.0625V32.8125Z" fill="#61BBD1"/>
</svg>
