<svg width="27" height="23" viewBox="0 0 27 23" fill="none" xmlns="http://www.w3.org/2000/svg">
<path d="M26.6271 0.81716L22.4188 22.0427C22.4188 22.0427 21.8295 23.5161 20.2088 22.8071L10.4938 15.3574L6.95778 13.6538L1.00909 11.6556C1.00909 11.6556 0.0974517 11.3333 0.00536672 10.6242C-0.0867182 9.91516 1.03672 9.53761 1.03672 9.53761L24.6841 0.264651C24.6841 0.255442 26.6271 -0.600948 26.6271 0.81716Z" fill="white"/>
<path d="M9.73849 21.8032C9.73849 21.8032 9.45302 21.7756 9.1031 20.6613C8.75318 19.5471 6.95752 13.6537 6.95752 13.6537L21.2399 4.58331C21.2399 4.58331 22.0687 4.08605 22.0318 4.58331C22.0318 4.58331 22.1792 4.67539 21.7372 5.08057C21.2951 5.49495 10.5212 15.1823 10.5212 15.1823" fill="#D2E4F0"/>
<path d="M14.2142 18.2121L10.3742 21.7205C10.3742 21.7205 10.0703 21.9507 9.74805 21.8034L10.4847 15.293" fill="#B5CFE4"/>
</svg>
