<svg width="84" height="73" viewBox="0 0 84 73" fill="none" xmlns="http://www.w3.org/2000/svg">
<path d="M83.0505 0.939834C83.0251 0.840598 82.988 0.744714 82.9401 0.654184V0.615232C82.8827 0.517844 82.8129 0.428362 82.7324 0.349058C82.6488 0.257949 82.5526 0.17925 82.4467 0.115345H82.3883C82.2875 0.0649052 82.1805 0.027805 82.0702 0.00498002C81.9946 -0.00166001 81.9185 -0.00166001 81.8429 0.00498002H81.7131L72.2282 0.978786C71.8839 1.01408 71.5676 1.18473 71.3491 1.45319C71.1306 1.72165 71.0276 2.06592 71.0629 2.41028C71.0982 2.75464 71.2688 3.07087 71.5373 3.28941C71.8058 3.50796 72.15 3.6109 72.4944 3.5756L79.0319 2.9264L70.1118 14.6445L61.8085 15.5404C61.3367 13.7916 60.4416 12.1857 59.2024 10.8646C57.9631 9.54343 56.4177 8.54764 54.7026 7.96505C52.9874 7.38247 51.1552 7.231 49.3677 7.52402C47.5801 7.81705 45.8922 8.54555 44.4528 9.64524C43.0134 10.7449 41.8668 12.182 41.1142 13.8297C40.3616 15.4773 40.0261 17.2849 40.1374 19.0929C40.2486 20.9009 40.8031 22.6537 41.752 24.1966C42.7009 25.7396 44.015 27.0253 45.5784 27.9402L42.5856 36.8214L31.4452 32.238C31.4452 31.9718 31.4842 31.7121 31.4842 31.4394C31.4877 29.5461 31.004 27.6837 30.0797 26.0313C29.1554 24.3789 27.8216 22.9921 26.2064 22.0042C24.5912 21.0162 22.7491 20.4604 20.857 20.3902C18.965 20.32 17.0867 20.7377 15.4028 21.6032C13.7188 22.4687 12.2858 23.7528 11.2416 25.3321C10.1974 26.9115 9.57699 28.7329 9.44012 30.6213C9.30326 32.5097 9.6545 34.4015 10.4601 36.1149C11.2657 37.8283 12.4985 39.3057 14.0401 40.405L0.127609 69.5088C0.0538635 69.6627 0.0111502 69.8296 0.00190754 70C-0.00733511 70.1704 0.017074 70.3409 0.0737411 70.5019C0.130408 70.6628 0.218224 70.811 0.332173 70.9381C0.446123 71.0651 0.583976 71.1684 0.737861 71.2422C0.891746 71.3159 1.05865 71.3586 1.22904 71.3679C1.39943 71.3771 1.56998 71.3527 1.73094 71.296C1.89189 71.2394 2.04012 71.1515 2.16714 71.0376C2.29416 70.9236 2.39749 70.7858 2.47124 70.6319L16.3188 41.6644C17.7229 42.2308 19.2286 42.5023 20.7422 42.4618C22.2558 42.4214 23.7448 42.0699 25.1168 41.4293C26.4887 40.7887 27.7141 39.8727 28.7168 38.7382C29.7196 37.6037 30.4781 36.275 30.9453 34.8348L42.8777 39.7168C43.0421 39.7848 43.2187 39.8183 43.3965 39.8152C43.5744 39.8121 43.7497 39.7725 43.9117 39.6989C44.0736 39.6252 44.2186 39.5191 44.3378 39.387C44.457 39.255 44.5478 39.0999 44.6046 38.9313L47.948 28.9725C48.999 29.2994 50.0933 29.4657 51.194 29.4659C51.5821 29.4666 51.97 29.4471 52.3561 29.4074C55.1261 29.1139 57.6827 27.7837 59.5129 25.6838C61.3432 23.5838 62.3116 20.8695 62.224 18.0853L71.0077 17.144C71.1853 17.1251 71.3571 17.0699 71.5124 16.9816C71.6677 16.8934 71.8031 16.7741 71.9101 16.6311L80.4991 5.15317V12.2944C80.4991 12.6388 80.6359 12.969 80.8794 13.2125C81.1229 13.456 81.4531 13.5928 81.7975 13.5928C82.1419 13.5928 82.4721 13.456 82.7156 13.2125C82.9591 12.969 83.0959 12.6388 83.0959 12.2944V1.25794C83.1059 1.16516 83.1059 1.07157 83.0959 0.978786L83.0505 0.939834ZM20.4477 39.8921C18.7785 39.8921 17.1468 39.3971 15.7589 38.4697C14.371 37.5424 13.2893 36.2243 12.6505 34.6821C12.0117 33.14 11.8446 31.4431 12.1702 29.8059C12.4959 28.1688 13.2997 26.665 14.48 25.4847C15.6603 24.3044 17.1641 23.5006 18.8012 23.1749C20.4383 22.8493 22.1353 23.0164 23.6774 23.6552C25.2196 24.294 26.5377 25.3757 27.465 26.7636C28.3924 28.1515 28.8874 29.7832 28.8874 31.4524C28.8839 33.6885 27.9932 35.8318 26.4109 37.4118C24.8285 38.9917 22.6838 39.8791 20.4477 39.8791V39.8921ZM52.0575 26.8496C50.3975 27.024 48.723 26.7023 47.2459 25.9251C45.7687 25.1479 44.5551 23.9502 43.7587 22.4834C42.9622 21.0165 42.6185 19.3465 42.7712 17.6843C42.9238 16.0222 43.5659 14.4426 44.6162 13.1454C45.6665 11.8481 47.0779 10.8915 48.6719 10.3963C50.266 9.90122 51.971 9.88986 53.5714 10.3637C55.1719 10.8376 56.5959 11.7754 57.6634 13.0585C58.7309 14.3416 59.394 15.9125 59.5687 17.5724C59.6848 18.6748 59.5826 19.7892 59.2679 20.8521C58.9532 21.9149 58.4322 22.9054 57.7347 23.7669C57.0372 24.6284 56.1768 25.344 55.2027 25.8729C54.2286 26.4019 53.1598 26.7337 52.0575 26.8496Z" fill="#61BBD1"/>
<path d="M18.6496 28.6794C18.6496 28.0301 19.1624 27.3809 20.5258 27.3809C21.3757 27.3728 22.1979 27.6832 22.8304 28.2509C23.0121 28.4568 23.2648 28.5867 23.5381 28.6144C23.7711 28.6162 23.9954 28.5257 24.162 28.3627C24.3287 28.1998 24.4241 27.9775 24.4275 27.7445C24.4262 27.5571 24.3698 27.3742 24.2652 27.2186C23.8965 26.7841 23.4434 26.4289 22.9335 26.1744C22.4235 25.92 21.8673 25.7717 21.2983 25.7385V24.7841C21.2983 24.581 21.2176 24.3861 21.074 24.2424C20.9303 24.0988 20.7354 24.0181 20.5323 24.0181C20.3291 24.0181 20.1342 24.0988 19.9906 24.2424C19.8469 24.3861 19.7662 24.581 19.7662 24.7841V25.7255C17.6563 25.9592 16.7344 27.2251 16.7344 28.6923C16.7344 32.659 22.7461 31.5553 22.7461 33.9639C22.7461 34.9831 22.0189 35.4765 20.5258 35.4765C20.0142 35.4615 19.5111 35.3426 19.0468 35.1273C18.5826 34.9119 18.1669 34.6044 17.8251 34.2236C17.737 34.117 17.6271 34.0306 17.5028 33.9701C17.3785 33.9097 17.2427 33.8765 17.1045 33.873C16.9477 33.8746 16.7941 33.9179 16.6596 33.9985C16.5251 34.0791 16.4145 34.194 16.3391 34.3315C16.2638 34.469 16.2264 34.6241 16.2308 34.7808C16.2353 34.9376 16.2814 35.0903 16.3644 35.2233C16.7595 35.7735 17.2683 36.2322 17.8564 36.5683C18.4446 36.9044 19.0981 37.1099 19.7727 37.1709V38.0928C19.7727 38.296 19.8534 38.4908 19.9971 38.6345C20.1407 38.7782 20.3356 38.8589 20.5388 38.8589C20.7419 38.8589 20.9368 38.7782 21.0804 38.6345C21.2241 38.4908 21.3048 38.296 21.3048 38.0928V37.1709C23.5121 36.9567 24.6677 35.7687 24.6677 33.9574C24.6677 29.8414 18.6496 30.8477 18.6496 28.6794Z" fill="#61BBD1"/>
<path d="M49.1035 15.9031C49.0321 15.2539 49.4735 14.5528 50.8368 14.4165C51.6861 14.3179 52.5414 14.5427 53.2324 15.0462C53.4345 15.2309 53.6987 15.3329 53.9725 15.3318C54.1987 15.3072 54.4066 15.1963 54.5529 15.0221C54.6993 14.8479 54.7728 14.624 54.758 14.397C54.736 14.2101 54.6592 14.034 54.5373 13.8906C54.1255 13.4972 53.6381 13.1914 53.1048 12.9917C52.5714 12.792 52.0031 12.7024 51.4341 12.7285L51.3367 11.7807C51.3152 11.5784 51.2142 11.3929 51.0559 11.2651C50.8977 11.1372 50.6951 11.0775 50.4928 11.099C50.2905 11.1206 50.105 11.2216 49.9772 11.3798C49.8493 11.5381 49.7896 11.7407 49.8111 11.943L49.9085 12.8779C47.8375 13.3258 47.052 14.6826 47.2013 16.1239C47.6168 20.071 53.4791 18.3442 53.7323 20.7397C53.8362 21.7525 53.1675 22.3238 51.6808 22.4796C51.1706 22.5186 50.6578 22.4535 50.1734 22.2883C49.6891 22.1232 49.2434 21.8614 48.8633 21.5188C48.7649 21.419 48.646 21.3418 48.5149 21.2924C48.3837 21.2431 48.2434 21.2229 48.1037 21.2331C47.9475 21.2505 47.7987 21.3094 47.6729 21.4035C47.547 21.4977 47.4485 21.6237 47.3876 21.7686C47.3267 21.9135 47.3057 22.0721 47.3265 22.2279C47.3474 22.3837 47.4095 22.5311 47.5064 22.6549C47.9563 23.163 48.5105 23.5681 49.1312 23.8426C49.7519 24.1171 50.4244 24.2545 51.103 24.2454L51.2004 25.1608C51.2111 25.261 51.2413 25.3581 51.2895 25.4465C51.3377 25.535 51.4028 25.6131 51.4812 25.6764C51.5596 25.7397 51.6496 25.787 51.7463 25.8154C51.8429 25.8439 51.9442 25.8531 52.0444 25.8425C52.1445 25.8318 52.2416 25.8015 52.3301 25.7533C52.4186 25.7052 52.4967 25.64 52.56 25.5617C52.6233 25.4833 52.6705 25.3932 52.699 25.2966C52.7275 25.2 52.7367 25.0987 52.726 24.9985L52.6287 24.0831C54.8035 23.6417 55.8227 22.3432 55.6345 20.5385C55.18 16.429 49.3372 18.052 49.1035 15.9031Z" fill="#61BBD1"/>
<path d="M80.4991 37.9302H67.515C66.8263 37.9302 66.1657 38.2038 65.6787 38.6908C65.1918 39.1778 64.9182 39.8383 64.9182 40.527V43.1238C64.9229 43.5811 65.0483 44.029 65.2817 44.4222C65.0483 44.8155 64.9229 45.2634 64.9182 45.7206V48.3174C64.9229 48.7747 65.0483 49.2226 65.2817 49.6159C65.0483 50.0091 64.9229 50.457 64.9182 50.9143V53.5111C64.9229 53.9683 65.0483 54.4162 65.2817 54.8095C65.0483 55.2027 64.9229 55.6506 64.9182 56.1079V58.7047C64.9229 59.162 65.0483 59.6099 65.2817 60.0031C65.0483 60.3964 64.9229 60.8443 64.9182 61.3015V63.8983C64.9229 64.3556 65.0483 64.8035 65.2817 65.1968C65.0483 65.59 64.9229 66.0379 64.9182 66.4952V69.092C64.9201 69.2556 64.9375 69.4186 64.9701 69.5789H62.2694C62.302 69.4186 62.3194 69.2556 62.3213 69.092V66.4952C62.3166 66.0379 62.1912 65.59 61.9578 65.1968C62.1912 64.8035 62.3166 64.3556 62.3213 63.8983V61.3015C62.3166 60.8443 62.1912 60.3964 61.9578 60.0031C62.1912 59.6099 62.3166 59.162 62.3213 58.7047V56.1079C62.3166 55.6506 62.1912 55.2027 61.9578 54.8095C62.1912 54.4162 62.3166 53.9683 62.3213 53.5111V50.9143C62.3213 50.2255 62.0478 49.565 61.5608 49.078C61.0738 48.591 60.4132 48.3174 59.7245 48.3174H46.7404C46.0517 48.3174 45.3912 48.591 44.9042 49.078C44.4172 49.565 44.1436 50.2255 44.1436 50.9143V53.5111C44.1484 53.9683 44.2738 54.4162 44.5072 54.8095C44.2738 55.2027 44.1484 55.6506 44.1436 56.1079V58.7047C44.1484 59.162 44.2738 59.6099 44.5072 60.0031C44.2738 60.3964 44.1484 60.8443 44.1436 61.3015V63.8983C44.1484 64.3556 44.2738 64.8035 44.5072 65.1968C44.2738 65.59 44.1484 66.0379 44.1436 66.4952V69.092C44.1456 69.2556 44.163 69.4186 44.1956 69.5789H41.4949C41.5275 69.4186 41.5449 69.2556 41.5468 69.092V66.4952C41.5421 66.0379 41.4166 65.59 41.1833 65.1968C41.4166 64.8035 41.5421 64.3556 41.5468 63.8983V61.3015C41.5468 60.6128 41.2732 59.9523 40.7862 59.4653C40.2992 58.9783 39.6387 58.7047 38.95 58.7047H25.9659C25.2772 58.7047 24.6167 58.9783 24.1297 59.4653C23.6427 59.9523 23.3691 60.6128 23.3691 61.3015V63.8983C23.3738 64.3556 23.4993 64.8035 23.7326 65.1968C23.4993 65.59 23.3738 66.0379 23.3691 66.4952V69.092C23.371 69.2556 23.3884 69.4186 23.421 69.5789H11.6834C11.3391 69.5789 11.0088 69.7157 10.7653 69.9592C10.5218 70.2027 10.385 70.5329 10.385 70.8773C10.385 71.2216 10.5218 71.5519 10.7653 71.7954C11.0088 72.0389 11.3391 72.1757 11.6834 72.1757H81.7975C82.0338 72.1757 82.2657 72.1111 82.4681 71.989C82.6705 71.8669 82.8357 71.6919 82.9459 71.4828C83.0562 71.2737 83.1072 71.0385 83.0936 70.8025C83.08 70.5665 83.0022 70.3387 82.8687 70.1437C83.017 69.8128 83.0944 69.4546 83.0959 69.092V66.4952C83.0911 66.0379 82.9657 65.59 82.7323 65.1968C82.9657 64.8035 83.0911 64.3556 83.0959 63.8983V61.3015C83.0911 60.8443 82.9657 60.3964 82.7323 60.0031C82.9657 59.6099 83.0911 59.162 83.0959 58.7047V56.1079C83.0911 55.6506 82.9657 55.2027 82.7323 54.8095C82.9657 54.4162 83.0911 53.9683 83.0959 53.5111V50.9143C83.0911 50.457 82.9657 50.0091 82.7323 49.6159C82.9657 49.2226 83.0911 48.7747 83.0959 48.3174V45.7206C83.0911 45.2634 82.9657 44.8155 82.7323 44.4222C82.9657 44.029 83.0911 43.5811 83.0959 43.1238V40.527C83.0959 39.8383 82.8223 39.1778 82.3353 38.6908C81.8483 38.2038 81.1878 37.9302 80.4991 37.9302ZM25.9659 69.092V66.4952H38.95V69.092H25.9659ZM38.95 63.8983H25.9659V61.3015H38.95V63.8983ZM46.7404 69.092V66.4952H59.7245V69.092H46.7404ZM59.7245 63.8983H46.7404V61.3015H59.7245V63.8983ZM59.7245 58.7047H46.7404V56.1079H59.7245V58.7047ZM59.7245 53.5111H46.7404V50.9143H59.7245V53.5111ZM67.515 69.092V66.4952H80.4991V69.092H67.515ZM80.4991 63.8983H67.515V61.3015H80.4991V63.8983ZM80.4991 58.7047H67.515V56.1079H80.4991V58.7047ZM80.4991 53.5111H67.515V50.9143H80.4991V53.5111ZM80.4991 48.3174H67.515V45.7206H80.4991V48.3174ZM80.4991 43.1238H67.515V40.527H80.4991V43.1238Z" fill="#61BBD1"/>
</svg>
