<svg width="86" height="90" viewBox="0 0 86 90" fill="none" xmlns="http://www.w3.org/2000/svg">
<path d="M84.689 61.7567C80.898 55.4627 74.55 52.9437 68.881 55.4927L54.954 61.9657C53.592 59.9267 50.799 56.8617 45.787 57.7227L32.631 60.1047C30.751 60.2367 29.049 59.4437 27.249 58.6047C25.177 57.6387 23.03 56.6377 20.404 56.8747L18.952 57.0037V55.9607C18.952 53.8307 17.219 52.0977 15.089 52.0977H3.863C1.733 52.0977 0 53.8307 0 55.9607V86.1357C0 88.2667 1.733 89.9997 3.863 89.9997H15.089C17.091 89.9997 18.722 88.4637 18.914 86.5117L23.84 86.0747C26.694 85.8197 29.509 86.8667 32.487 87.9737C35.172 88.9717 37.938 89.9987 40.78 89.9987C41.111 89.9987 41.443 89.9847 41.776 89.9557C47.823 89.4287 61.707 80.7277 77.783 70.6537C79.616 69.5047 81.47 68.3427 83.33 67.1827C85.185 66.0267 85.794 63.5927 84.689 61.7567ZM15.089 86.9827H3.863C3.397 86.9827 3.017 86.6027 3.017 86.1367V55.9607C3.017 55.4947 3.397 55.1147 3.863 55.1147H15.089C15.555 55.1147 15.935 55.4947 15.935 55.9607V57.2717V86.1357C15.935 86.6027 15.555 86.9827 15.089 86.9827ZM81.733 64.6237C79.871 65.7857 78.016 66.9467 76.181 68.0977C61.09 77.5537 46.836 86.4857 41.51 86.9507C38.997 87.1757 36.344 86.1887 33.537 85.1457C30.719 84.0987 27.816 83.0197 24.715 83.0197C24.337 83.0197 23.956 83.0357 23.572 83.0697L18.951 83.4797V60.0337L20.67 59.8807C22.495 59.7197 24.185 60.5077 25.975 61.3397C27.975 62.2727 30.245 63.3267 32.945 63.1077L46.311 60.6937C49.208 60.1967 51.162 61.3437 53.061 64.6527L53.749 65.8537L54 66.2917C47.46 69.9437 41.822 72.2137 36.802 73.2167C35.985 73.3797 35.456 74.1737 35.619 74.9917C35.762 75.7087 36.392 76.2047 37.096 76.2047C37.194 76.2047 37.293 76.1957 37.394 76.1757C43.072 75.0407 49.424 72.4197 56.815 68.1647C57.537 67.7497 57.785 66.8287 57.371 66.1077L56.494 64.5787L70.133 58.2387C74.324 56.3537 79.137 58.3937 82.102 63.3167C82.36 63.7387 82.19 64.3377 81.733 64.6237Z" fill="#61BBD1"/>
<path d="M49.0983 3.017C60.4303 3.017 69.6503 12.237 69.6503 23.569C69.6503 34.901 60.4303 44.121 49.0983 44.121C37.7663 44.121 28.5463 34.901 28.5463 23.569C28.5463 12.237 37.7663 3.017 49.0983 3.017ZM49.0983 0C36.0813 0 25.5293 10.552 25.5293 23.569C25.5293 36.586 36.0813 47.138 49.0983 47.138C62.1153 47.138 72.6673 36.586 72.6673 23.569C72.6673 10.552 62.1153 0 49.0983 0Z" fill="#61BBD1"/>
<path d="M57.0389 27.5788C56.2059 27.5788 55.5309 28.2537 55.5309 29.0868C55.5309 30.3088 54.7469 31.3397 53.8199 31.3397H44.3769C43.4489 31.3397 42.6659 30.3078 42.6659 29.0868V18.0538C42.6659 16.8317 43.4499 15.8007 44.3769 15.8007H53.8199C54.7469 15.8007 55.5309 16.8328 55.5309 18.0538C55.5309 18.8868 56.2069 19.5617 57.0389 19.5617C57.8709 19.5617 58.5469 18.8868 58.5469 18.0538C58.5469 15.1477 56.4259 12.7837 53.8199 12.7837H50.6069V10.4768C50.6069 9.64375 49.9309 8.96875 49.0989 8.96875C48.2659 8.96875 47.5909 9.64375 47.5909 10.4768V12.7837H44.3779C41.7709 12.7837 39.6499 15.1477 39.6499 18.0538V29.0868C39.6499 31.9928 41.7709 34.3568 44.3779 34.3568H47.5909V36.6637C47.5909 37.4967 48.2669 38.1717 49.0989 38.1717C49.9319 38.1717 50.6069 37.4967 50.6069 36.6637V34.3568H53.8199C56.4259 34.3568 58.5469 31.9928 58.5469 29.0868C58.5469 28.2537 57.8719 27.5788 57.0389 27.5788Z" fill="#61BBD1"/>
</svg>
