<svg width="107" height="89" viewBox="0 0 107 89" fill="none" xmlns="http://www.w3.org/2000/svg">
<path d="M58.9202 42.5586H9.26698C8.79667 42.5586 8.34561 42.7454 8.01305 43.078C7.68049 43.4106 7.49365 43.8616 7.49365 44.3319V46.1053H51.8269C53.2374 46.1068 54.5896 46.6678 55.587 47.6651C56.5844 48.6625 57.1454 50.0148 57.1469 51.4252V53.1986H60.6936V44.3319C60.6936 43.8616 60.5067 43.4106 60.1742 43.078C59.8416 42.7454 59.3905 42.5586 58.9202 42.5586Z" fill="#61BBD1"/>
<path d="M66.013 56.748H57.1463V79.8013C57.1448 81.2118 56.5838 82.5641 55.5865 83.5614C54.5891 84.5588 53.2368 85.1198 51.8264 85.1213H14.5864V86.8947C14.5864 87.365 14.7733 87.816 15.1058 88.1486C15.4384 88.4812 15.8894 88.668 16.3598 88.668H66.013C66.4833 88.668 66.9344 88.4812 67.2669 88.1486C67.5995 87.816 67.7863 87.365 67.7863 86.8947V58.5214C67.7863 58.0511 67.5995 57.6 67.2669 57.2674C66.9344 56.9349 66.4833 56.748 66.013 56.748Z" fill="#61BBD1"/>
<path d="M51.8267 49.6509H2.17348C1.70316 49.6509 1.25211 49.8377 0.919543 50.1703C0.586979 50.5028 0.400146 50.9539 0.400146 51.4242V79.7975C0.400146 80.2678 0.586979 80.7189 0.919543 81.0514C1.25211 81.384 1.70316 81.5708 2.17348 81.5708H51.8267C52.297 81.5708 52.7481 81.384 53.0807 81.0514C53.4132 80.7189 53.6 80.2678 53.6 79.7975V51.4242C53.6 50.9539 53.4132 50.5028 53.0807 50.1703C52.7481 49.8377 52.297 49.6509 51.8267 49.6509ZM27.0001 74.4775C25.2464 74.4775 23.5322 73.9575 22.074 72.9832C20.6159 72.0089 19.4795 70.6241 18.8084 69.004C18.1373 67.3838 17.9617 65.601 18.3038 63.881C18.6459 62.1611 19.4904 60.5812 20.7304 59.3412C21.9705 58.1012 23.5503 57.2567 25.2703 56.9146C26.9903 56.5724 28.773 56.748 30.3932 57.4191C32.0134 58.0902 33.3982 59.2267 34.3724 60.6848C35.3467 62.1429 35.8667 63.8572 35.8667 65.6108C35.864 67.9616 34.9289 70.2152 33.2667 71.8775C31.6045 73.5397 29.3508 74.4747 27.0001 74.4775Z" fill="#61BBD1"/>
<path d="M94.3866 15.96C94.385 14.5495 93.824 13.1972 92.8267 12.1999C91.8293 11.2025 90.4771 10.6415 89.0666 10.64C88.7554 10.6398 88.4497 10.5578 88.1802 10.4021C87.9108 10.2464 87.687 10.0225 87.5315 9.75299C87.3759 9.48345 87.2941 9.17771 87.2941 8.86651C87.2941 8.5553 87.376 8.24958 87.5316 7.98006C87.6872 7.71054 87.911 7.48671 88.1805 7.33106C88.45 7.17541 88.7557 7.09342 89.0669 7.09332C89.3781 7.09322 89.6838 7.17503 89.9534 7.33051C90.223 7.486 90.4469 7.70969 90.6027 7.97912C90.8391 8.38506 91.227 8.68057 91.6812 8.80076C92.1353 8.92095 92.6186 8.85599 93.0249 8.62015C93.4312 8.38431 93.7273 7.99686 93.8482 7.54289C93.9691 7.08892 93.9048 6.60553 93.6696 6.19887C93.0287 5.11992 92.0261 4.30302 90.8399 3.89322V1.77333C90.8399 1.30301 90.6531 0.85196 90.3205 0.519397C89.988 0.186833 89.5369 0 89.0666 0C88.5963 0 88.1452 0.186833 87.8127 0.519397C87.4801 0.85196 87.2933 1.30301 87.2933 1.77333V3.87343C86.1104 4.28928 85.1131 5.1105 84.4779 6.1915C83.8428 7.27251 83.6109 8.54348 83.8233 9.77914C84.0358 11.0148 84.6789 12.1353 85.6387 12.9421C86.5984 13.7488 87.8128 14.1898 89.0666 14.1866C89.3804 14.1868 89.6885 14.2702 89.9595 14.4284C90.2305 14.5865 90.4546 14.8137 90.6091 15.0868C90.7636 15.3599 90.8429 15.6691 90.8389 15.9828C90.8348 16.2966 90.7476 16.6036 90.5861 16.8726C90.4246 17.1417 90.1947 17.363 89.9197 17.5141C89.6447 17.6652 89.3345 17.7407 89.0209 17.7327C88.7072 17.7248 88.4013 17.6338 88.1343 17.469C87.8673 17.3042 87.6488 17.0715 87.5011 16.7947C87.2788 16.3802 86.9009 16.0709 86.4506 15.935C86.0003 15.7991 85.5145 15.8476 85.1 16.0699C84.6855 16.2922 84.3762 16.6701 84.2403 17.1204C84.1044 17.5707 84.1529 18.0565 84.3752 18.471C85.0032 19.6367 86.0439 20.5257 87.2933 20.9639V23.0533C87.2933 23.5236 87.4801 23.9747 87.8127 24.3072C88.1452 24.6398 88.5963 24.8266 89.0666 24.8266C89.5369 24.8266 89.988 24.6398 90.3205 24.3072C90.6531 23.9747 90.8399 23.5236 90.8399 23.0533V20.9532C91.8742 20.5889 92.7704 19.9133 93.4055 19.0193C94.0405 18.1252 94.3832 17.0566 94.3866 15.96Z" fill="#61BBD1"/>
<path d="M80.2001 31.9168C79.7298 31.9168 79.2787 31.73 78.9462 31.3974C78.6136 31.0649 78.4268 30.6138 78.4268 30.1435V23.0502C78.4268 22.5799 78.6136 22.1288 78.9462 21.7963C79.2787 21.4637 79.7298 21.2769 80.2001 21.2769C80.6704 21.2769 81.1215 21.4637 81.454 21.7963C81.7866 22.1288 81.9734 22.5799 81.9734 23.0502V30.1435C81.9734 30.6138 81.7866 31.0649 81.454 31.3974C81.1215 31.73 80.6704 31.9168 80.2001 31.9168Z" fill="#61BBD1"/>
<path d="M89.0668 44.334C88.5965 44.334 88.1454 44.1472 87.8129 43.8146C87.4803 43.482 87.2935 43.031 87.2935 42.5607V30.1474C87.2935 29.677 87.4803 29.226 87.8129 28.8934C88.1454 28.5609 88.5965 28.374 89.0668 28.374C89.5371 28.374 89.9882 28.5609 90.3207 28.8934C90.6533 29.226 90.8401 29.677 90.8401 30.1474V42.5607C90.8401 43.031 90.6533 43.482 90.3207 43.8146C89.9882 44.1472 89.5371 44.334 89.0668 44.334Z" fill="#61BBD1"/>
<path d="M106.665 52.5208C106.53 52.1968 106.303 51.9199 106.011 51.7251C105.72 51.5303 105.377 51.4263 105.026 51.4263H99.7064V37.2396C99.7064 36.7693 99.5195 36.3183 99.187 35.9857C98.8544 35.6531 98.4034 35.4663 97.933 35.4663H94.3864V42.5596C94.3864 43.9706 93.8259 45.3237 92.8282 46.3214C91.8305 47.3191 90.4773 47.8796 89.0664 47.8796C87.6554 47.8796 86.3023 47.3191 85.3046 46.3214C84.3069 45.3237 83.7464 43.9706 83.7464 42.5596V35.4663H80.1997C79.7294 35.4663 79.2784 35.6531 78.9458 35.9857C78.6132 36.3183 78.4264 36.7693 78.4264 37.2396V51.4263H73.1064C72.7557 51.4263 72.4129 51.5303 72.1213 51.7251C71.8297 51.92 71.6024 52.1969 71.4682 52.5209C71.334 52.845 71.2989 53.2015 71.3673 53.5455C71.4358 53.8894 71.6047 54.2054 71.8527 54.4534L87.8127 70.4133C87.9773 70.578 88.1727 70.7087 88.3879 70.7978C88.603 70.887 88.8336 70.9329 89.0665 70.9329C89.2993 70.9329 89.5299 70.887 89.745 70.7978C89.9602 70.7087 90.1556 70.578 90.3202 70.4133L106.28 54.4534C106.528 54.2054 106.697 53.8894 106.766 53.5454C106.834 53.2014 106.799 52.8448 106.665 52.5208Z" fill="#61BBD1"/>
<path d="M97.9332 31.9168C97.4629 31.9168 97.0119 31.73 96.6793 31.3974C96.3467 31.0649 96.1599 30.6138 96.1599 30.1435V23.0502C96.1599 22.5799 96.3467 22.1288 96.6793 21.7963C97.0119 21.4637 97.4629 21.2769 97.9332 21.2769C98.4036 21.2769 98.8546 21.4637 99.1872 21.7963C99.5197 22.1288 99.7066 22.5799 99.7066 23.0502V30.1435C99.7066 30.6138 99.5197 31.0649 99.1872 31.3974C98.8546 31.73 98.4036 31.9168 97.9332 31.9168Z" fill="#61BBD1"/>
</svg>
