<svg width="73" height="75" viewBox="0 0 73 75" fill="none" xmlns="http://www.w3.org/2000/svg">
<path d="M66.2093 5.11364H55.1744V1.70455C55.1744 0.767045 54.4105 0 53.4767 0C52.543 0 51.7791 0.767045 51.7791 1.70455V5.11364H21.2209V1.70455C21.2209 0.767045 20.457 0 19.5233 0C18.5895 0 17.8256 0.767045 17.8256 1.70455V5.11364H6.7907C3.05581 5.11364 0 8.18182 0 11.9318V68.1818C0 71.9318 3.05581 75 6.7907 75H66.2093C69.9442 75 73 71.9318 73 68.1818V11.9318C73 8.18182 69.9442 5.11364 66.2093 5.11364ZM6.7907 8.52273H17.8256V11.9318C17.8256 12.8693 18.5895 13.6364 19.5233 13.6364C20.457 13.6364 21.2209 12.8693 21.2209 11.9318V8.52273H51.7791V11.9318C51.7791 12.8693 52.543 13.6364 53.4767 13.6364C54.4105 13.6364 55.1744 12.8693 55.1744 11.9318V8.52273H66.2093C68.0767 8.52273 69.6047 10.0568 69.6047 11.9318V18.75H3.39535V11.9318C3.39535 10.0568 4.92326 8.52273 6.7907 8.52273ZM66.2093 71.5909H6.7907C4.92326 71.5909 3.39535 70.0568 3.39535 68.1818V22.1591H69.6047V68.1818C69.6047 70.0568 68.0767 71.5909 66.2093 71.5909ZM22.0698 51.1364H10.186C9.25233 51.1364 8.48837 51.9034 8.48837 52.8409V64.7727C8.48837 65.7102 9.25233 66.4773 10.186 66.4773H22.0698C23.0035 66.4773 23.7674 65.7102 23.7674 64.7727V52.8409C23.7674 51.9034 23.0035 51.1364 22.0698 51.1364ZM20.3721 63.0682H11.8837V54.5455H20.3721V63.0682ZM42.4419 51.1364H30.5581C29.6244 51.1364 28.8605 51.9034 28.8605 52.8409V64.7727C28.8605 65.7102 29.6244 66.4773 30.5581 66.4773H42.4419C43.3756 66.4773 44.1395 65.7102 44.1395 64.7727V52.8409C44.1395 51.9034 43.3756 51.1364 42.4419 51.1364ZM40.7442 63.0682H32.2558V54.5455H40.7442V63.0682ZM62.814 51.1364H50.9302C49.9965 51.1364 49.2326 51.9034 49.2326 52.8409V64.7727C49.2326 65.7102 49.9965 66.4773 50.9302 66.4773H62.814C63.7477 66.4773 64.5116 65.7102 64.5116 64.7727V52.8409C64.5116 51.9034 63.7477 51.1364 62.814 51.1364ZM61.1163 63.0682H52.6279V54.5455H61.1163V63.0682ZM22.0698 30.6818H10.186C9.25233 30.6818 8.48837 31.4489 8.48837 32.3864V44.3182C8.48837 45.2557 9.25233 46.0227 10.186 46.0227H22.0698C23.0035 46.0227 23.7674 45.2557 23.7674 44.3182V32.3864C23.7674 31.4489 23.0035 30.6818 22.0698 30.6818ZM20.3721 42.6136H11.8837V34.0909H20.3721V42.6136ZM42.4419 30.6818H30.5581C29.6244 30.6818 28.8605 31.4489 28.8605 32.3864V44.3182C28.8605 45.2557 29.6244 46.0227 30.5581 46.0227H42.4419C43.3756 46.0227 44.1395 45.2557 44.1395 44.3182V32.3864C44.1395 31.4489 43.3756 30.6818 42.4419 30.6818ZM40.7442 42.6136H32.2558V34.0909H40.7442V42.6136ZM62.814 30.6818H50.9302C49.9965 30.6818 49.2326 31.4489 49.2326 32.3864V44.3182C49.2326 45.2557 49.9965 46.0227 50.9302 46.0227H62.814C63.7477 46.0227 64.5116 45.2557 64.5116 44.3182V32.3864C64.5116 31.4489 63.7477 30.6818 62.814 30.6818ZM61.1163 42.6136H52.6279V34.0909H61.1163V42.6136Z" fill="#61BBD1"/>
</svg>
