<svg width="84" height="72" viewBox="0 0 84 72" fill="none" xmlns="http://www.w3.org/2000/svg">
<path d="M83.5925 64.5826C83.576 64.5438 83.5575 64.506 83.5371 64.4691C83.5143 64.4141 83.4884 64.3605 83.4595 64.3085L73.2051 48.9268C73.0997 48.7871 72.9855 48.6544 72.8631 48.5294C73.5908 47.7638 73.9976 46.7486 73.9999 45.6923V4.15385C73.9999 3.05218 73.5622 1.99563 72.7832 1.21663C72.0042 0.437636 70.9477 0 69.846 0H14.4614C13.3597 0 12.3032 0.437636 11.5242 1.21663C10.7452 1.99563 10.3075 3.05218 10.3075 4.15385V45.6923C10.3098 46.7486 10.7166 47.7638 11.4443 48.5294C11.3219 48.6544 11.2077 48.7871 11.1023 48.9268L0.84785 64.3085C0.818946 64.3605 0.793058 64.4141 0.770311 64.4691C0.749912 64.506 0.731426 64.5438 0.714927 64.5826C0.654348 64.7315 0.620597 64.89 0.615234 65.0506C0.615234 65.0603 0.615234 65.0672 0.615234 65.0769C0.617433 66.9124 1.34753 68.672 2.64539 69.9698C3.94324 71.2677 5.70287 71.9978 7.53831 72H76.7691C78.6045 71.9978 80.3642 71.2677 81.662 69.9698C82.9599 68.672 83.69 66.9124 83.6922 65.0769C83.6922 65.0672 83.6922 65.0603 83.6922 65.0506C83.6865 64.89 83.6528 64.7316 83.5925 64.5826ZM13.0768 4.15385C13.0768 3.78662 13.2227 3.43444 13.4823 3.17478C13.742 2.91511 14.0942 2.76923 14.4614 2.76923H69.846C70.2132 2.76923 70.5654 2.91511 70.8251 3.17478C71.0847 3.43444 71.2306 3.78662 71.2306 4.15385V45.6923C71.2306 46.0595 71.0847 46.4117 70.8251 46.6714C70.5654 46.931 70.2132 47.0769 69.846 47.0769H14.4614C14.0942 47.0769 13.742 46.931 13.4823 46.6714C13.2227 46.4117 13.0768 46.0595 13.0768 45.6923V4.15385ZM13.4063 50.4623C13.5328 50.2727 13.7041 50.1173 13.9051 50.0098C14.106 49.9023 14.3304 49.8461 14.5583 49.8462H69.7491C69.977 49.8461 70.2014 49.9023 70.4023 50.0098C70.6033 50.1173 70.7746 50.2727 70.9011 50.4623L79.7211 63.6923H4.58631L13.4063 50.4623ZM76.7691 69.2308H7.53831C6.67947 69.2297 5.84198 68.963 5.14069 68.4672C4.4394 67.9714 3.90866 67.2709 3.62123 66.4615H80.6862C80.3987 67.2709 79.868 67.9714 79.1667 68.4672C78.4654 68.963 77.6279 69.2297 76.7691 69.2308Z" fill="#61BBD1"/>
<path d="M18.6149 44.3091H65.6919C66.4263 44.3091 67.1307 44.0173 67.65 43.498C68.1693 42.9787 68.4611 42.2743 68.4611 41.5399V8.30909C68.4611 7.57464 68.1693 6.87028 67.65 6.35095C67.1307 5.83161 66.4263 5.53986 65.6919 5.53986H18.6149C17.8805 5.53986 17.1761 5.83161 16.6568 6.35095C16.1375 6.87028 15.8457 7.57464 15.8457 8.30909V41.5399C15.8457 42.2743 16.1375 42.9787 16.6568 43.498C17.1761 44.0173 17.8805 44.3091 18.6149 44.3091ZM18.6149 8.30909H65.6919V41.5399H18.6149V8.30909Z" fill="#61BBD1"/>
<path d="M18.6149 52.6141H17.2303C16.8631 52.6141 16.5109 52.76 16.2512 53.0197C15.9916 53.2793 15.8457 53.6315 15.8457 53.9988C15.8457 54.366 15.9916 54.7182 16.2512 54.9778C16.5109 55.2375 16.8631 55.3834 17.2303 55.3834H18.6149C18.9822 55.3834 19.3343 55.2375 19.594 54.9778C19.8537 54.7182 19.9995 54.366 19.9995 53.9988C19.9995 53.6315 19.8537 53.2793 19.594 53.0197C19.3343 52.76 18.9822 52.6141 18.6149 52.6141Z" fill="#61BBD1"/>
<path d="M25.538 52.6141H24.1534C23.7862 52.6141 23.434 52.76 23.1743 53.0197C22.9147 53.2793 22.7688 53.6315 22.7688 53.9988C22.7688 54.366 22.9147 54.7182 23.1743 54.9778C23.434 55.2375 23.7862 55.3834 24.1534 55.3834H25.538C25.9053 55.3834 26.2574 55.2375 26.5171 54.9778C26.7768 54.7182 26.9226 54.366 26.9226 53.9988C26.9226 53.6315 26.7768 53.2793 26.5171 53.0197C26.2574 52.76 25.9053 52.6141 25.538 52.6141Z" fill="#61BBD1"/>
<path d="M32.4619 52.6141H31.0772C30.71 52.6141 30.3578 52.76 30.0982 53.0197C29.8385 53.2793 29.6926 53.6315 29.6926 53.9988C29.6926 54.366 29.8385 54.7182 30.0982 54.9778C30.3578 55.2375 30.71 55.3834 31.0772 55.3834H32.4619C32.8291 55.3834 33.1813 55.2375 33.4409 54.9778C33.7006 54.7182 33.8465 54.366 33.8465 53.9988C33.8465 53.6315 33.7006 53.2793 33.4409 53.0197C33.1813 52.76 32.8291 52.6141 32.4619 52.6141Z" fill="#61BBD1"/>
<path d="M39.3845 52.6141H37.9998C37.6326 52.6141 37.2804 52.76 37.0208 53.0197C36.7611 53.2793 36.6152 53.6315 36.6152 53.9988C36.6152 54.366 36.7611 54.7182 37.0208 54.9778C37.2804 55.2375 37.6326 55.3834 37.9998 55.3834H39.3845C39.7517 55.3834 40.1039 55.2375 40.3635 54.9778C40.6232 54.7182 40.7691 54.366 40.7691 53.9988C40.7691 53.6315 40.6232 53.2793 40.3635 53.0197C40.1039 52.76 39.7517 52.6141 39.3845 52.6141Z" fill="#61BBD1"/>
<path d="M46.3071 52.6141H44.9225C44.5552 52.6141 44.2031 52.76 43.9434 53.0197C43.6837 53.2793 43.5378 53.6315 43.5378 53.9988C43.5378 54.366 43.6837 54.7182 43.9434 54.9778C44.2031 55.2375 44.5552 55.3834 44.9225 55.3834H46.3071C46.6743 55.3834 47.0265 55.2375 47.2861 54.9778C47.5458 54.7182 47.6917 54.366 47.6917 53.9988C47.6917 53.6315 47.5458 53.2793 47.2861 53.0197C47.0265 52.76 46.6743 52.6141 46.3071 52.6141Z" fill="#61BBD1"/>
<path d="M53.2309 52.6141H51.8463C51.4791 52.6141 51.1269 52.76 50.8672 53.0197C50.6075 53.2793 50.4617 53.6315 50.4617 53.9988C50.4617 54.366 50.6075 54.7182 50.8672 54.9778C51.1269 55.2375 51.4791 55.3834 51.8463 55.3834H53.2309C53.5981 55.3834 53.9503 55.2375 54.21 54.9778C54.4696 54.7182 54.6155 54.366 54.6155 53.9988C54.6155 53.6315 54.4696 53.2793 54.21 53.0197C53.9503 52.76 53.5981 52.6141 53.2309 52.6141Z" fill="#61BBD1"/>
<path d="M60.154 52.6141H58.7694C58.4022 52.6141 58.05 52.76 57.7903 53.0197C57.5306 53.2793 57.3848 53.6315 57.3848 53.9988C57.3848 54.366 57.5306 54.7182 57.7903 54.9778C58.05 55.2375 58.4022 55.3834 58.7694 55.3834H60.154C60.5212 55.3834 60.8734 55.2375 61.1331 54.9778C61.3927 54.7182 61.5386 54.366 61.5386 53.9988C61.5386 53.6315 61.3927 53.2793 61.1331 53.0197C60.8734 52.76 60.5212 52.6141 60.154 52.6141Z" fill="#61BBD1"/>
<path d="M65.692 55.3834H67.0766C67.4438 55.3834 67.796 55.2375 68.0557 54.9778C68.3153 54.7182 68.4612 54.366 68.4612 53.9988C68.4612 53.6315 68.3153 53.2793 68.0557 53.0197C67.796 52.76 67.4438 52.6141 67.0766 52.6141H65.692C65.3248 52.6141 64.9726 52.76 64.7129 53.0197C64.4533 53.2793 64.3074 53.6315 64.3074 53.9988C64.3074 54.366 64.4533 54.7182 64.7129 54.9778C64.9726 55.2375 65.3248 55.3834 65.692 55.3834Z" fill="#61BBD1"/>
<path d="M15.8459 58.154H14.4613C14.0941 58.154 13.7419 58.2999 13.4822 58.5595C13.2225 58.8192 13.0767 59.1714 13.0767 59.5386C13.0767 59.9058 13.2225 60.258 13.4822 60.5177C13.7419 60.7773 14.0941 60.9232 14.4613 60.9232H15.8459C16.2131 60.9232 16.5653 60.7773 16.825 60.5177C17.0846 60.258 17.2305 59.9058 17.2305 59.5386C17.2305 59.1714 17.0846 58.8192 16.825 58.5595C16.5653 58.2999 16.2131 58.154 15.8459 58.154Z" fill="#61BBD1"/>
<path d="M22.7695 58.154H21.3849C21.0176 58.154 20.6655 58.2999 20.4058 58.5595C20.1461 58.8192 20.0002 59.1714 20.0002 59.5386C20.0002 59.9058 20.1461 60.258 20.4058 60.5177C20.6655 60.7773 21.0176 60.9232 21.3849 60.9232H22.7695C23.1367 60.9232 23.4889 60.7773 23.7485 60.5177C24.0082 60.258 24.1541 59.9058 24.1541 59.5386C24.1541 59.1714 24.0082 58.8192 23.7485 58.5595C23.4889 58.2999 23.1367 58.154 22.7695 58.154Z" fill="#61BBD1"/>
<path d="M29.6923 58.154H28.3077C27.9405 58.154 27.5883 58.2999 27.3286 58.5595C27.069 58.8192 26.9231 59.1714 26.9231 59.5386C26.9231 59.9058 27.069 60.258 27.3286 60.5177C27.5883 60.7773 27.9405 60.9232 28.3077 60.9232H29.6923C30.0595 60.9232 30.4117 60.7773 30.6714 60.5177C30.9311 60.258 31.0769 59.9058 31.0769 59.5386C31.0769 59.1714 30.9311 58.8192 30.6714 58.5595C30.4117 58.2999 30.0595 58.154 29.6923 58.154Z" fill="#61BBD1"/>
<path d="M36.6149 58.154H35.2303C34.8631 58.154 34.5109 58.2999 34.2512 58.5595C33.9916 58.8192 33.8457 59.1714 33.8457 59.5386C33.8457 59.9058 33.9916 60.258 34.2512 60.5177C34.5109 60.7773 34.8631 60.9232 35.2303 60.9232H36.6149C36.9822 60.9232 37.3343 60.7773 37.594 60.5177C37.8537 60.258 37.9995 59.9058 37.9995 59.5386C37.9995 59.1714 37.8537 58.8192 37.594 58.5595C37.3343 58.2999 36.9822 58.154 36.6149 58.154Z" fill="#61BBD1"/>
<path d="M43.538 58.154H42.1534C41.7862 58.154 41.434 58.2999 41.1743 58.5595C40.9147 58.8192 40.7688 59.1714 40.7688 59.5386C40.7688 59.9058 40.9147 60.258 41.1743 60.5177C41.434 60.7773 41.7862 60.9232 42.1534 60.9232H43.538C43.9053 60.9232 44.2574 60.7773 44.5171 60.5177C44.7768 60.258 44.9226 59.9058 44.9226 59.5386C44.9226 59.1714 44.7768 58.8192 44.5171 58.5595C44.2574 58.2999 43.9053 58.154 43.538 58.154Z" fill="#61BBD1"/>
<path d="M50.4619 58.154H49.0772C48.71 58.154 48.3578 58.2999 48.0982 58.5595C47.8385 58.8192 47.6926 59.1714 47.6926 59.5386C47.6926 59.9058 47.8385 60.258 48.0982 60.5177C48.3578 60.7773 48.71 60.9232 49.0772 60.9232H50.4619C50.8291 60.9232 51.1813 60.7773 51.4409 60.5177C51.7006 60.258 51.8465 59.9058 51.8465 59.5386C51.8465 59.1714 51.7006 58.8192 51.4409 58.5595C51.1813 58.2999 50.8291 58.154 50.4619 58.154Z" fill="#61BBD1"/>
<path d="M57.3845 58.154H55.9998C55.6326 58.154 55.2804 58.2999 55.0208 58.5595C54.7611 58.8192 54.6152 59.1714 54.6152 59.5386C54.6152 59.9058 54.7611 60.258 55.0208 60.5177C55.2804 60.7773 55.6326 60.9232 55.9998 60.9232H57.3845C57.7517 60.9232 58.1039 60.7773 58.3635 60.5177C58.6232 60.258 58.7691 59.9058 58.7691 59.5386C58.7691 59.1714 58.6232 58.8192 58.3635 58.5595C58.1039 58.2999 57.7517 58.154 57.3845 58.154Z" fill="#61BBD1"/>
<path d="M69.8455 58.154H62.9225C62.5552 58.154 62.2031 58.2999 61.9434 58.5595C61.6837 58.8192 61.5378 59.1714 61.5378 59.5386C61.5378 59.9058 61.6837 60.258 61.9434 60.5177C62.2031 60.7773 62.5552 60.9232 62.9225 60.9232H69.8455C70.2128 60.9232 70.5649 60.7773 70.8246 60.5177C71.0843 60.258 71.2301 59.9058 71.2301 59.5386C71.2301 59.1714 71.0843 58.8192 70.8246 58.5595C70.5649 58.2999 70.2128 58.154 69.8455 58.154Z" fill="#61BBD1"/>
<path d="M22.7691 15.2295C23.1363 15.2295 23.4884 15.0835 23.748 14.8239L25.1326 13.4392C25.3848 13.1781 25.5244 12.8283 25.5213 12.4653C25.5181 12.1023 25.3725 11.755 25.1158 11.4983C24.859 11.2415 24.5118 11.0959 24.1487 11.0928C23.7857 11.0896 23.4359 11.2292 23.1748 11.4814L21.7902 12.866C21.5966 13.0596 21.4648 13.3063 21.4114 13.5749C21.358 13.8434 21.3854 14.1218 21.4901 14.3748C21.5949 14.6277 21.7723 14.844 22 14.9961C22.2276 15.1482 22.4953 15.2295 22.7691 15.2295Z" fill="#61BBD1"/>
<path d="M22.7691 23.5372C23.1363 23.5372 23.4884 23.3912 23.748 23.1315L33.4403 13.4392C33.6925 13.1781 33.8321 12.8283 33.8289 12.4653C33.8258 12.1023 33.6802 11.755 33.4234 11.4983C33.1667 11.2415 32.8195 11.0959 32.4564 11.0928C32.0934 11.0896 31.7436 11.2292 31.4825 11.4814L21.7902 21.1737C21.5966 21.3673 21.4648 21.614 21.4114 21.8826C21.358 22.1511 21.3854 22.4295 21.4901 22.6825C21.5949 22.9354 21.7723 23.1516 22 23.3038C22.2276 23.4559 22.4953 23.5372 22.7691 23.5372Z" fill="#61BBD1"/>
<path d="M39.7903 11.4814L27.3287 23.9429C27.1965 24.0707 27.091 24.2234 27.0184 24.3924C26.9459 24.5613 26.9077 24.743 26.9061 24.9268C26.9045 25.1107 26.9395 25.293 27.0091 25.4632C27.0787 25.6333 27.1815 25.7879 27.3116 25.9179C27.4416 26.0479 27.5962 26.1508 27.7663 26.2204C27.9365 26.29 28.1188 26.325 28.3027 26.3234C28.4865 26.3218 28.6682 26.2836 28.8371 26.2111C29.006 26.1385 29.1588 26.033 29.2866 25.9008L41.7481 13.4392C42.0003 13.1781 42.1399 12.8283 42.1367 12.4653C42.1336 12.1023 41.988 11.755 41.7312 11.4983C41.4745 11.2415 41.1272 11.0959 40.7642 11.0928C40.4012 11.0896 40.0514 11.2292 39.7903 11.4814Z" fill="#61BBD1"/>
<path d="M23.1757 28.0992L21.7911 29.4838C21.6589 29.6115 21.5534 29.7643 21.4808 29.9332C21.4083 30.1022 21.3701 30.2839 21.3685 30.4677C21.3669 30.6516 21.4019 30.8339 21.4715 31.004C21.5411 31.1742 21.6439 31.3288 21.774 31.4588C21.904 31.5888 22.0586 31.6916 22.2287 31.7613C22.3989 31.8309 22.5812 31.8659 22.7651 31.8643C22.9489 31.8627 23.1306 31.8245 23.2995 31.7519C23.4685 31.6794 23.6212 31.5739 23.749 31.4417L25.1336 30.057C25.3858 29.7959 25.5254 29.4461 25.5222 29.0831C25.519 28.7201 25.3734 28.3728 25.1167 28.1161C24.86 27.8593 24.5127 27.7137 24.1497 27.7106C23.7866 27.7074 23.4369 27.847 23.1757 28.0992Z" fill="#61BBD1"/>
</svg>
