<svg width="77" height="51" viewBox="0 0 77 51" fill="none" xmlns="http://www.w3.org/2000/svg">
<path d="M76.0335 43.3053C76.0335 42.8479 76.3236 32.1485 69.6295 26.0458C69.4009 25.8393 69.1071 25.7195 68.7993 25.7072C68.4915 25.695 68.1891 25.7911 67.9449 25.9788C67.8668 25.9788 60.1351 31.8808 52.8386 25.9788C52.6012 25.779 52.3009 25.6694 51.9906 25.6694C51.6804 25.6694 51.3801 25.779 51.1427 25.9788C49.4404 27.6116 48.0425 29.5346 47.0147 31.6576C46.8004 31.5653 46.5652 31.5321 46.3336 31.5615C46.1021 31.591 45.8827 31.6819 45.6982 31.825C45.3747 32.0593 37.7992 37.6935 30.5919 31.825C30.4227 31.6874 30.2215 31.5948 30.007 31.5558C29.7924 31.5168 29.5715 31.5326 29.3647 31.6018C28.4059 29.4991 27.0453 27.6041 25.3594 26.0235C25.1308 25.8169 24.837 25.6972 24.5292 25.6849C24.2213 25.6727 23.919 25.7688 23.6747 25.9565C23.5966 25.9565 15.865 31.8585 8.56842 25.9565C8.33107 25.7567 8.03077 25.6471 7.7205 25.6471C7.41023 25.6471 7.10993 25.7567 6.87259 25.9565C6.60482 26.1908 0.178513 31.9142 4.4643e-06 43.1938C-0.000898689 43.5437 0.135265 43.8801 0.379335 44.1309C0.500764 44.2563 0.64651 44.3557 0.807653 44.4228C0.968796 44.49 1.14195 44.5235 1.31651 44.5214H22.4586C22.1925 46.021 22.047 47.5394 22.0235 49.0622C22.0183 49.2369 22.0482 49.4108 22.1114 49.5737C22.1747 49.7366 22.27 49.8852 22.3917 50.0106C22.5143 50.1344 22.6602 50.2327 22.8211 50.2998C22.982 50.3668 23.1546 50.4012 23.3289 50.401H52.5262C52.8677 50.4012 53.196 50.2687 53.4416 50.0314C53.6873 49.794 53.8311 49.4705 53.8427 49.1292C53.8592 47.5866 53.7473 46.0454 53.508 44.5214H74.7282C75.0587 44.5196 75.3764 44.3935 75.6182 44.1682C75.8601 43.9429 76.0083 43.6349 76.0335 43.3053ZM23.0611 41.9665H2.68879C2.92276 37.1095 4.75436 32.4658 7.89901 28.7569C14.7828 33.5543 21.8115 30.2184 24.333 28.7569C25.6229 30.187 26.6435 31.8388 27.3453 33.6324C25.3827 36.1014 23.9268 38.9336 23.0611 41.9665ZM24.7011 47.8461C24.9443 43.0018 26.7663 38.3703 29.889 34.6588C36.7728 39.4562 43.8016 36.1204 46.323 34.6588C50.239 38.8649 50.9865 45.2131 51.1316 47.9019L24.7011 47.8461ZM52.9278 41.9665C52.234 38.9606 50.8981 36.1404 49.0118 33.6993C49.813 31.9161 50.869 30.2587 52.1468 28.7792C59.0306 33.5766 66.0594 30.2407 68.5808 28.7792C72.4857 32.9853 73.2443 39.3335 73.3782 42.0223L52.9278 41.9665Z" fill="#61BBD1"/>
<path d="M60.157 0.00557872C57.1378 0.00668421 54.2217 1.10486 51.9518 3.09568C49.6818 5.08651 48.2126 7.83433 47.8176 10.8277C46.7463 9.40734 45.3826 8.23355 43.8187 7.38563C42.2547 6.53771 40.5269 6.03543 38.7521 5.91274C36.9773 5.79005 35.1969 6.04981 33.5311 6.67445C31.8653 7.2991 30.3531 8.27407 29.0965 9.53348C28.773 9.86818 28.4718 10.214 28.1817 10.5599C27.8166 8.20563 26.7838 6.00552 25.2058 4.22067C23.6278 2.43582 21.5708 1.14116 19.279 0.490354C16.9872 -0.160456 14.5568 -0.140098 12.2763 0.549014C9.99572 1.23813 7.96074 2.56706 6.41285 4.3781C4.86495 6.18914 3.86913 8.40624 3.54357 10.7663C3.21801 13.1263 3.57637 15.5303 4.57613 17.6927C5.5759 19.8552 7.17508 21.6855 9.18389 22.9663C11.1927 24.2471 13.5268 24.9247 15.9092 24.9187C17.5449 24.9232 19.1652 24.6031 20.6762 23.9768C22.1873 23.3506 23.559 22.4307 24.7119 21.2704C25.0346 20.9445 25.34 20.6019 25.6268 20.244C26.081 23.1762 27.5665 25.8501 29.8162 27.7849C32.0659 29.7196 34.9321 30.7881 37.8992 30.7983C40.9294 30.8156 43.8616 29.7252 46.1442 27.7322C48.4269 25.7393 49.9028 22.9811 50.2944 19.9762C51.4521 21.5118 52.9505 22.7575 54.6717 23.6152C56.3929 24.4729 58.2898 24.9191 60.2128 24.9187C61.88 24.9686 63.5402 24.6833 65.0951 24.0798C66.6501 23.4762 68.068 22.5667 69.2649 21.405C70.4618 20.2434 71.4134 18.8533 72.0632 17.3172C72.713 15.781 73.0478 14.1301 73.0478 12.4621C73.0478 10.7942 72.713 9.14324 72.0632 7.60709C71.4134 6.07094 70.4618 4.68086 69.2649 3.51923C68.068 2.3576 66.6501 1.44806 65.0951 0.844508C63.5402 0.240958 61.88 -0.0443216 60.2128 0.00557872H60.157ZM22.8264 19.4072C21.919 20.3241 20.838 21.0509 19.6464 21.5451C18.4549 22.0393 17.1768 22.2911 15.8869 22.2857C13.6065 22.2902 11.3951 21.5034 9.62994 20.0596C7.86481 18.6157 6.65525 16.6042 6.20759 14.3681C5.75993 12.1321 6.10189 9.80995 7.17514 7.79784C8.24839 5.78574 9.98646 4.2083 12.0929 3.33457C14.1993 2.46085 16.5436 2.34496 18.7259 3.00667C20.9083 3.66839 22.7934 5.06672 24.0599 6.96316C25.3264 8.8596 25.8957 11.1367 25.6708 13.406C25.4458 15.6753 24.4405 17.7963 22.8264 19.4072ZM44.8499 25.2869C43.9395 26.1997 42.8579 26.9239 41.6671 27.4178C40.4762 27.9118 39.1996 28.1658 37.9104 28.1653C35.6364 28.1651 33.4328 27.3764 31.6751 25.9337C29.9174 24.4909 28.7143 22.4833 28.2708 20.253C27.8274 18.0226 28.171 15.7075 29.2431 13.7021C30.3152 11.6967 32.0495 10.125 34.1505 9.25497C36.2515 8.3849 38.5891 8.27023 40.7652 8.9305C42.9412 9.59077 44.821 10.9851 46.0843 12.876C47.3475 14.7668 47.916 17.0372 47.693 19.3003C47.47 21.5633 46.4691 23.679 44.8611 25.2869H44.8499ZM67.0966 19.4072C66.1891 20.3241 65.1081 21.0509 63.9166 21.5451C62.7251 22.0393 61.447 22.2911 60.157 22.2857C57.8766 22.2902 55.6652 21.5034 53.9001 20.0596C52.1349 18.6157 50.9254 16.6042 50.4777 14.3681C50.0301 12.1321 50.372 9.80995 51.4453 7.79784C52.5185 5.78574 54.2566 4.2083 56.363 3.33457C58.4694 2.46085 60.8138 2.34496 62.9961 3.00667C65.1784 3.66839 67.0636 5.06672 68.33 6.96316C69.5965 8.8596 70.1658 11.1367 69.9409 13.406C69.716 15.6753 68.7107 17.7963 67.0966 19.4072Z" fill="#61BBD1"/>
</svg>
